<svg xmlns="http://www.w3.org/2000/svg" fill="none" viewBox="0 0 50 50" id="User-Circle-Single--Streamline-Core" height="50" width="50">
  <desc>
    User Circle Single Streamline Icon: https://streamlinehq.com
  </desc>
  <g id="user-circle-single--circle-geometric-human-person-single-user">
    <path id="Ellipse 4" fill="#97a7dd" d="M0 25a25 25 0 1 0 50 0A25 25 0 1 0 0 25" stroke-width="3.5714"></path>
    <path id="Ellipse 5" fill="#223268" d="M16.071428571428573 17.857142857142858a8.928571428571429 8.928571428571429 0 1 0 17.857142857142858 0 8.928571428571429 8.928571428571429 0 1 0 -17.857142857142858 0" stroke-width="3.5714"></path>
    <path id="Subtract" fill="#223268" d="M40.15357142857143 37.5A19.603571428571428 19.603571428571428 0 0 0 25 30.357142857142858a19.603571428571428 19.603571428571428 0 0 0 -15.15357142857143 7.142857142857143A19.603571428571428 19.603571428571428 0 0 0 25 44.642857142857146a19.603571428571428 19.603571428571428 0 0 0 15.15357142857143 -7.142857142857143Z" stroke-width="3.5714"></path>
  </g>
</svg>