<svg xmlns="http://www.w3.org/2000/svg" fill="none" viewBox="0 0 20 20" id="Disable-Heart--Streamline-Core" height="20" width="20">
  <desc>
    Disable Heart Streamline Icon: https://streamlinehq.com
  </desc>
  <g id="disable-heart">
    <path id="Union" fill="#702d8f" fill-rule="evenodd" d="M1.8290428571428572 0.3138142857142857c-0.4184185714285715 -0.41841900000000004 -1.09681 -0.41841900000000004 -1.5152285714285714 0 -0.41841900000000004 0.4184185714285715 -0.41841900000000004 1.09681 0 1.5152285714285714L18.171 19.68614285714286c0.4184285714285714 0.4184285714285714 1.0967142857142858 0.4184285714285714 1.5151428571428571 0 0.4184285714285714 -0.4184285714285714 0.4184285714285714 -1.0967142857142858 0 -1.5151428571428571l-4.639285714285714 -4.639328571428571 2.359857142857143 -2.185771428571429 0.013571428571428571 -0.0129c2.2785714285714285 -2.224357142857143 1.7397142857142858 -5.464842857142857 -0.04485714285714285 -7.255957142857143 -0.9080000000000001 -0.9113285714285715 -2.1697142857142855 -1.4907285714285714 -3.599057142857143 -1.3907857142857143 -1.2476714285714285 0.08722857142857143 -2.541042857142857 0.6856142857142857 -3.776357142857143 1.8860428571428571 -1.2353 -1.2004285714285716 -2.5286857142857144 -1.7988142857142857 -3.7763428571428572 -1.8860428571428571 -0.6333285714285715 -0.04428571428571429 -1.2337714285714285 0.044814285714285716 -1.7851142857142857 0.23707142857142854L1.8290428571428572 0.3138142857142857Zm0.7507285714285715 11.019185714285713C0.8438285714285714 9.638385714285715 0.7432028571428572 7.354014285714285 1.5828142857142855 5.570057142857142l10.619828571428572 10.596085714285714 -0.7453714285714286 0.6904285714285715c-0.4105 0.38142857142857145 -0.9356714285714287 0.5725714285714286 -1.4579 0.5730000000000001 -0.5222142857142857 -0.00042857142857142855 -1.0461142857142858 -0.19157142857142856 -1.4566142857142859 -0.5730000000000001L2.5797714285714286 11.333Z" clip-rule="evenodd" stroke-width="1.4286"></path>
  </g>
</svg>